<svg xmlns="http://www.w3.org/2000/svg" width="157.572" height="161.025" viewBox="0 0 157.572 161.025">
  <g id="Group_879" data-name="Group 879" transform="translate(-124 -45)">
    <g id="logo" transform="translate(124 45)">
      <circle id="Ellipse_241" data-name="Ellipse 241" cx="55.71" cy="55.71" r="55.71" transform="translate(0 78.786) rotate(-45)" fill="#85bb65"/>
      <path id="Path_384" data-name="Path 384" d="M328.711,251.067c-2.02-2.02-1.033-5.082,3.276-9.186,12.232-11.673,28.466-25.03,37.039-33.2,1.5-1.432,3.4-2.562,2.52-4.074l3.629,3.629c-1.516-.878-2.642,1.021-4.074,2.52-8.178,8.569-21.531,24.782-33.183,37.039C333.789,252.1,330.727,253.087,328.711,251.067Zm52.5-44.974,17.129-18.1a.42.42,0,0,0,.05-.571l-.42-.42a.42.42,0,0,0-.567.05l-14.89,14.89a.739.739,0,0,1-1.029.1h0a.739.739,0,0,1,.1-1.033l14.886-14.886a.42.42,0,0,0,.059-.567l-.42-.42a.42.42,0,0,0-.563.05l-14.9,14.9a.735.735,0,0,1-1.033.1h0a.739.739,0,0,1,.1-1.033l14.886-14.886a.42.42,0,0,0,.055-.571l-.42-.42a.42.42,0,0,0-.567.055l-14.886,14.886a.739.739,0,0,1-1.033.1h0a.739.739,0,0,1,.1-1.033l14.886-14.886a.42.42,0,0,0,.059-.563l-.42-.42a.42.42,0,0,0-.575.046l-18.1,17.133c-2.331,2.209-2.478,3.995-1.491,4.977l4.049,4.049C377.221,208.572,379.006,208.429,381.215,206.093Z" transform="translate(-283.738 -137.889)" fill="#fff"/>
      <path id="Path_385" data-name="Path 385" d="M394.717,251.015c-2.02,2.02-5.078,1.033-9.19-3.272-11.669-12.232-25.026-28.474-33.183-37.039-1.428-1.5-2.562-3.4-4.079-2.52l3.633-3.633c-.874,1.516,1.021,2.646,2.52,4.079,8.569,8.17,24.782,21.535,37.035,33.2C395.729,245.937,396.717,249,394.717,251.015Zm-68.6-68.584c-2.94,2.94.038,14.113,6.464,20.54s11.686,7.846,16.8,2.726,3.7-10.379-2.726-16.8S329.065,179.491,326.121,182.431Z" transform="translate(-282.16 -137.875)" fill="#fff"/>
    </g>
    <text id="KHAJAGHAR" transform="translate(152.668 202.025)" fill="#85bb65" font-size="15" font-family="Roboto-Regular, Roboto"><tspan x="0" y="0">KHAJAGHAR</tspan></text>
  </g>
</svg>
