<svg xmlns="http://www.w3.org/2000/svg" width="27" height="36.004" viewBox="0 0 27 36.004">
  <g id="Group_86" data-name="Group 86" transform="translate(-350 -137.498)">
    <g id="Group_85" data-name="Group 85" transform="translate(291 262.498)">
      <path id="Icon_awesome-receipt" data-name="Icon awesome-receipt" d="M25.2.225l-2.7,3.15L18.675.225a1.118,1.118,0,0,0-1.35,0L13.5,3.375,9.675.225a1.118,1.118,0,0,0-1.35,0L4.5,3.375,1.8.225a1.124,1.124,0,0,0-1.8.9v33.75a1.124,1.124,0,0,0,1.8.9l2.7-3.15,3.825,3.15a1.118,1.118,0,0,0,1.35,0l3.825-3.15,3.825,3.15a1.118,1.118,0,0,0,1.35,0l3.825-3.15,2.7,3.15a1.125,1.125,0,0,0,1.8-.9V1.125a1.124,1.124,0,0,0-1.8-.9ZM22.5,25.313a.564.564,0,0,1-.562.563H5.063a.564.564,0,0,1-.562-.562V24.188a.564.564,0,0,1,.563-.562H21.938a.564.564,0,0,1,.563.563Zm0-6.75a.564.564,0,0,1-.562.563H5.063a.564.564,0,0,1-.562-.562V17.438a.564.564,0,0,1,.563-.562H21.938a.564.564,0,0,1,.563.563Zm0-6.75a.564.564,0,0,1-.562.563H5.063a.564.564,0,0,1-.562-.562V10.688a.564.564,0,0,1,.563-.562H21.938a.564.564,0,0,1,.563.563Z" transform="translate(59 -124.998)" fill="#fff"/>
      <rect id="Rectangle_3" data-name="Rectangle 3" width="21" height="21" transform="translate(62 -117)" fill="#fff"/>
    </g>
    <text id="_11" data-name="11" transform="translate(364 162.5)" font-size="20" font-family="Roboto-Regular, Roboto"><tspan x="-11.23" y="0">11</tspan></text>
  </g>
</svg>
